<?xml version="1.0" encoding="UTF-8"?>
<svg id="Layer_1" xmlns="http://www.w3.org/2000/svg" viewBox="0 0 648.77419 473.20968">
  <path d="M364.0614,454.4985h-.00042c-116.78521,0-211.45833-94.67312-211.45833-211.45833V37.83183s22.94085,0,22.94085,0h399.97623v205.20833c0,116.78521-94.67312,211.45833-211.45833,211.45833Z" fill="#ffb847" stroke="#231f20" stroke-linecap="round" stroke-linejoin="round" stroke-width="17"/>
  <g>
    <circle cx="233.16907" cy="159.70134" r="106.25" fill="none" stroke="#231f20" stroke-linecap="round" stroke-linejoin="round" stroke-width="17"/>
    <circle cx="490.28584" cy="159.70134" r="106.25" fill="none" stroke="#231f20" stroke-linecap="round" stroke-linejoin="round" stroke-width="17"/>
    <path d="M336.47362,144.21653c0-13.6689,11.08083-24.74973,24.74973-24.74973s24.74973,11.08083,24.74973,24.74973" fill="none" stroke="#231f20" stroke-linecap="round" stroke-linejoin="round" stroke-width="17"/>
  </g>
  <circle cx="233.12567" cy="158.70134" r="31.17716" fill="#fff"/>
  <circle cx="233.12567" cy="158.70134" r="12.5" fill="#231f20"/>
  <circle cx="488.43597" cy="158.18615" r="31.17716" fill="#fff"/>
  <circle cx="488.43597" cy="158.18615" r="12.5" fill="#231f20"/>
  <path d="M461.6006,308.66516c0,53.15043-43.08694,96.23737-96.23737,96.23737h-.00019c-53.15043,0-96.23737-43.08694-96.23737-96.23737h192.47493Z" fill="#5b3d1b"/>
  <path d="M322.76515,309.38074h38.72865v47.02588c0,6.24075-5.0667,11.30745-11.30745,11.30745h-16.11375c-6.24075,0-11.30745-5.0667-11.30745-11.30745v-47.02588h0Z" fill="#fff"/>
  <path d="M363.36313,309.38074h38.72865v45.15065c0,7.27572-5.90696,13.18269-13.18269,13.18269h-12.36328c-7.27572,0-13.18269-5.90696-13.18269-13.18269v-45.15065h0Z" fill="#fff"/>
  <path d="M96.21964,84.63897h49.2916v156.43211h-49.2916c-37.83218,0-68.54711-30.71493-68.54711-68.54711v-19.3379c0-37.83218,30.71493-68.54711,68.54711-68.54711Z" fill="none" stroke="#231f20" stroke-miterlimit="10" stroke-width="17"/>
</svg>