<?xml version="1.0" encoding="UTF-8"?>
<svg id="Layer_1" xmlns="http://www.w3.org/2000/svg" viewBox="0 0 638.70968 598.98361">
  <path d="M524.55759,70.52751c70.59735,12.36123,92.33315,94.55329,92.53837,155.84664.10147,30.30652-5.86981,64.57883-28.56058,86.61807-17.97633,17.46017-48.14234,26.81221-71.82493,15.86604-13.23866-6.11895-23.49793-18.96649-24.8711-33.72574-1.388-14.91864,8.35169-30.33166,23.92055-32.39258,16.00552-2.11872,28.80073,13.14279,35.9046,25.57278,6.95112,12.1627,10.55849,26.10991,10.91003,40.08631.75562,30.04172-13.42109,57.36099-38.53665,73.86933-27.94208,18.3662-63.05012,24.31052-95.63601,28.35383-76.64684,9.51047-154.10405,1.88605-230.36297-7.48907-9.6519-1.18659-19.2998-2.40539-28.94739-3.62643-5.73085-.72532-5.67801,8.28137,0,9,85.16394,10.7787,171.61132,21.6577,257.39107,11.35,35.41513-4.25565,74.01315-10.42454,104.03362-31.11562,26.82603-18.48936,42.09844-48.39788,41.03536-81.04794-.50635-15.55129-4.6196-31.05481-12.46438-44.53285-7.8722-13.52515-20.46969-27.43446-36.85626-29.36926-15.60938-1.84303-30.61822,8.67637-36.55833,22.78895-6.41364,15.2376-1.87481,33.09474,8.19003,45.63509,18.88747,23.53297,52.60943,24.29751,78.28531,12.62267,30.48393-13.86106,46.53053-45.01373,51.60285-76.87029,2.75953-17.33113,2.85969-34.95529,1.41489-52.41631-1.58348-19.13708-4.58572-38.32317-10.46778-56.64188-10.6685-33.22528-31.9063-64.47488-64.3031-79.60113-7.48894-3.49663-15.30112-6.03325-23.44461-7.45913-5.66432-.99179-8.09635,7.67981-2.39256,8.67851h0Z" fill="#231f20"/>
  <path d="M135.12466,508.33279l-26.05882-75.56732c-2.46598-7.15104-8.06822-12.78079-15.20709-15.28178l-76.32105-26.73786c-.5671-.5671-.5671-1.48655,0-2.05365l75.36888-30.37499c6.34191-2.5559,11.34308-7.62275,13.81602-13.99747l28.40207-73.21451c.5671-.5671,1.48655-.5671,2.05365,0l26.70166,71.86434c2.4115,6.49027,7.43262,11.67286,13.84334,14.28852l77.04197,31.43411c.5671.5671.5671,1.48655,0,2.05365l-73.44763,27.9769c-6.48692,2.47093-11.63718,7.55368-14.19348,14.00743l-29.94585,75.60264c-.5671.5671-1.48655.5671-2.05365,0Z" fill="#ffb847" stroke="#231f20" stroke-miterlimit="10" stroke-width="8"/>
</svg>