<?xml version="1.0" encoding="UTF-8"?>
<svg id="Layer_1" xmlns="http://www.w3.org/2000/svg" viewBox="0 0 579.32745 515.89398">
  <path d="M15.01815,3.16558c-20.70998,71.46392-19.83523,148.5852,1.59931,219.78613,9.18145,30.49881,21.11876,64.81117,45.08732,87.06783,22.89001,21.25519,58.07022,25.51822,83.09191,5.11044,11.1181-9.06796,20.28659-25.99274,10.75969-39.40784-8.19049-11.53326-24.94966-13.17007-37.08485-7.68488-15.03783,6.79718-25.52017,22.33786-34.30136,35.68637-9.91346,15.06973-17.92402,31.87088-21.06263,49.74359-5.87662,33.46426,5.041,67.79562,24.12002,95.27609,6.17326,8.89166,12.71011,16.57535,21.39133,23.01221,8.52434,6.32053,17.90686,11.48419,27.47101,16.04199,54.55014,25.99582,120.45522,36.09494,179.47511,21.12604,8.1785-2.07428,16.19229-4.69159,24.04105-7.78406,5.32709-2.09888,3.0069-10.80591-2.39255-8.67853-54.51263,21.4783-116.47806,17.04089-171.03619-2.00281-19.08247-6.66083-38.72961-15.15485-54.71553-27.77246-8.29768-6.54932-14.52853-15.16495-20.14989-24.04236-8.47578-13.38525-14.89516-28.0495-18.3099-43.54727-7.20045-32.67923,2.7515-63.42667,21.35717-90.4147,8.12761-11.78931,18.93895-28.14398,34.32484-30.50745,5.89304-.90524,12.70424.33252,17.31593,4.29486,5.98058,5.13846,5.21948,13.28055,1.73074,19.63763-7.05037,12.84695-22.71729,20.23773-36.86359,21.36343-14.47206,1.15161-28.42726-3.78558-39.56871-12.97888-22.77837-18.79547-34.08817-49.32812-43.03773-76.52359C7.09825,165.66028,2.9733,95.72058,17.56002,29.53859c1.77676-8.06142,3.83907-16.05222,6.13664-23.98044C25.3119-.01554,16.62975-2.39557,15.01815,3.16559h0Z" fill="#231f20"/>
  <path d="M573.67999,383.98572l-71.63898-2.40787c-1.34705-.04529-2.14526,1.40128-1.37451,2.49106l9.75275,13.79019-172.00946,98.94119,184.77979-73.21579,5.02545,16.19156c.39069,1.2587,2.07397,1.60202,2.89874.59119l43.86346-53.7583c.84009-1.02951.07477-2.57709-1.29724-2.62323Z" fill="#ffb847" stroke="#231f20" stroke-miterlimit="10" stroke-width="8"/>
</svg>