<?xml version="1.0" encoding="UTF-8"?>
<svg id="Layer_1" xmlns="http://www.w3.org/2000/svg" viewBox="0 0 638.70968 598.98361">
  <path d="M161.80827,143.44785c-27.91725-12.55367-60.26407-4.90466-83.29484,14.18674-25.51811,21.15329-36.14572,55.47415-36.53465,87.66904-.4037,33.41718,8.84221,69.53729,32.28241,94.3299,21.37209,22.60517,57.28754,34.42162,86.26375,19.59675,12.71419-6.50486,23.04486-17.814,28.43226-31.01953,5.3915-13.2156,6.08127-31.06377-3.4634-42.66398-9.51201-11.56053-26.0351-9.33974-36.37182-.15966-12.49888,11.1003-13.76197,30.12687-14.99086,45.65666-1.3479,17.03373-.83573,35.17976,7.91574,50.37703,6.96367,12.0927,18.2934,20.80656,30.9579,26.30338,28.98074,12.57864,62.9125,11.99671,93.89821,11.77841,72.83635-.51314,146.46035-12.87309,212.811-43.81259,8.16524-3.80747,16.18456-7.90884,24.07292-12.26,5.07277-2.79811.53766-10.5734-4.54247-7.77124-56.77421,31.3163-120.65486,47.47964-185.01639,52.76969-31.11145,2.55713-62.82028,3.22898-93.96264.74609-23.92883-1.90778-53.07684-7.30368-67.91717-28.33033-9.19526-13.02838-10.39311-29.1388-9.56855-44.59402.73499-13.77628.97009-32.52934,11.23914-43.0909,4.30996-4.43272,11.0513-7.727,17.3455-6.38138,7.29703,1.56001,10.65694,8.98002,11.89977,15.66314,2.44926,13.17051-2.82316,26.91372-11.53104,36.73835-19.95097,22.5096-52.32858,21.54906-76.40155,6.24569-26.25963-16.69344-39.06913-47.7404-43.01267-77.53718-3.86574-29.20893-.04572-60.75086,16.38331-85.78441,14.83927-22.61115,41.56736-37.70315,68.93157-35.81788,6.7562.46547,13.45674,2.15655,19.63212,4.93346,5.23974,2.35618,9.82179-5.39726,4.54247-7.77124h0Z"/>
  <g>
    <polygon points="578.5516 340.61353 510.08183 382.3792 506.70162 353.95287 564.02288 317.66414 578.5516 340.61353" fill="#fbb040" stroke="#000" stroke-miterlimit="10" stroke-width="9"/>
    <g>
      <path d="M450.70864,323.05466l158.74133-32.71284c1.46102-.30108,2.58019,1.28212,1.80896,2.55901l-70.06982,116.01199c-.69448,1.14983-2.38268,1.08679-2.98947-.11163l-27.23109-53.78145c-.17281-.3413-.45507-.6148-.80164-.77676l-59.83713-27.96417c-1.49128-.69693-1.23335-2.89191.37887-3.22415Z" fill="#fbb040" stroke="#000" stroke-miterlimit="10" stroke-width="9"/>
      <line x1="502.78907" y1="355.0605" x2="568.98084" y2="313.15607" fill="#fbb040" stroke="#000" stroke-miterlimit="10" stroke-width="9"/>
    </g>
  </g>
</svg>