<?xml version="1.0" encoding="UTF-8"?>
<svg id="Layer_1" xmlns="http://www.w3.org/2000/svg" viewBox="0 0 638.70968 598.98361">
  <path d="M617.50593,260.12387c11.94466-46.77827,5.70796-102.52076-28.13073-139.1305-38.29008-41.42565-103.829-42.67508-149.64866-13.24956-22.67257,14.56039-40.77851,35.55535-53.44216,59.22666-13.1323,24.54731-23.68858,54.96713-20.43105,83.13303,1.4559,12.58832,6.02173,28.41051,17.81547,35.20466,12.13866,6.99286,24.45635-2.20299,32.95231-10.64946,16.58689-16.49027,24.9784-39.79687,25.61935-62.92682.66983-24.17197-7.18077-47.97147-22.59204-66.63275-16.46522-19.93751-40.35735-33.09834-65.37933-38.83653-54.38844-12.47266-108.53823,11.04886-146.62111,49.66779-38.57501,39.118-66.04348,97.18472-54.40607,152.93952,1.43974,6.89777,3.55339,13.61946,6.26938,20.11982,2.39319,5.72778,5.032,11.95556,10.10798,15.83312,10.83764,8.27891,25.05875.79816,32.34819-8.55476,13.84255-17.76107,10.8385-43.19242-.98715-61.1723-14.25502-21.67352-39.68993-30.15128-64.81947-27.01374-26.61339,3.32281-51.15896,17.76044-69.00809,37.49167-32.20296,35.5986-44.47467,88.12305-32.07558,134.42303,3.05427,11.40506,7.68671,22.37687,13.69381,32.53805,2.94539,4.98221,10.72836.45959,7.77124-4.54247-22.18434-37.52543-22.33835-85.65066-3.77599-124.69506,9.13833-19.22172,22.75934-36.51256,40.29876-48.73085,20.59943-14.34996,47.78261-22.94417,72.5611-15.43149,19.91599,6.0384,34.83267,24.45582,36.4475,45.32766.73759,9.53333-1.42682,19.33822-7.59184,26.84989-3.3971,4.13915-8.66268,8.19901-14.28143,8.10263-6.69641-.11487-9.53412-7.19642-11.83656-12.44203-21.07649-48.01827-2.05124-104.70595,28.00856-144.35142,29.3174-38.66633,74.2042-69.71022,124.05746-70.841,44.96769-1.01997,93.61682,22.7684,108.21044,67.73613,6.56527,20.22976,6.24768,42.65054-1.41324,62.5379-3.76534,9.77463-9.53714,18.85061-16.96984,26.24005-3.68583,3.66437-8.0892,7.80322-13.01883,9.69402-7.10579,2.72548-12.62095-2.18158-16.06047-8.02082-13.51196-22.93916-5.42258-54.00588,3.24864-77.19098,8.62213-23.05382,22.07562-44.54933,39.93864-61.56221,35.86714-34.16016,93.32973-47.33496,137.53263-21.04694,39.48744,23.48367,54.37685,71.96215,51.92014,115.65171-.60675,10.79021-2.31743,21.44347-4.99048,31.9118-1.43364,5.6145,7.24422,8.0096,8.67851,2.39256h0Z" fill="#231f20"/>
  <path d="M94.91893,562.10633l4.97031-43.45271c.09346-.81706-.74727-1.37331-1.44778-.95788l-8.86443,5.25671-51.75791-109.45748,35.48688,115.96541-10.09359,2.2641c-.78466.17602-1.07583,1.18298-.50142,1.73406l30.54903,29.30839c.58504.56131,1.56371.17159,1.65891-.6606Z" fill="#ffb847" stroke="#231f20" stroke-miterlimit="10" stroke-width="8"/>
</svg>