<?xml version="1.0" encoding="UTF-8"?>
<svg id="Layer_1" xmlns="http://www.w3.org/2000/svg" viewBox="0 0 638.70968 598.98361">
  <path d="M250.68722,440.05221l-45.74753-132.66211c-4.32915-12.55399-14.16416-22.4373-26.69679-26.82791l-133.98532-46.93962c-.99557-.99557-.99557-2.60971,0-3.60529l132.31373-53.32477c11.13353-4.48701,19.91333-13.38211,24.2547-24.57324L250.68723,23.58766c.99557-.99557,2.60971-.99557,3.60529,0l46.87605,126.16134c4.23351,11.39398,13.04833,20.49228,24.30266,25.08418l135.25092,55.1841c.99557.99557.99557,2.60971,0,3.60529l-128.94089,49.1148c-11.3881,4.33783-20.42964,13.26086-24.91735,24.59073l-52.5714,132.7241c-.99557.99557-2.60971.99557-3.60529,0Z" fill="#ffb847" stroke="#231f20" stroke-miterlimit="10" stroke-width="8"/>
  <path d="M460.31528,554.54285l-29.27479-84.89322c-2.77031-8.03356-9.06394-14.35809-17.08382-17.16773l-85.73996-30.03763c-.63709-.63709-.63709-1.67001,0-2.3071l84.67028-34.12362c7.12458-2.87133,12.74295-8.56349,15.52108-15.72492l31.90722-82.25004c.63709-.63709,1.67001-.63709,2.3071,0l29.99695,80.73324c2.70911,7.29125,8.3499,13.11343,15.55177,16.05189l86.54985,35.31345c.63709.63709.63709,1.67001,0,2.3071l-82.51193,31.42958c-7.28748,2.77587-13.07335,8.4859-15.94512,15.73612l-33.64152,84.93289c-.63709.63709-1.67001.63709-2.3071,0Z" fill="#ffb847" stroke="#231f20" stroke-miterlimit="10" stroke-width="8"/>
</svg>