<?xml version="1.0" encoding="UTF-8"?>
<svg id="Layer_1" xmlns="http://www.w3.org/2000/svg" viewBox="0 0 638.70968 598.98361">
  <path d="M298.53117,558.59464l-56.92352-165.07108c-5.38675-15.62089-17.62442-27.91867-33.21873-33.38189l-166.71755-58.40683c-1.23879-1.23879-1.23879-3.24726,0-4.48605l164.6376-66.35185c13.85342-5.58317,24.7781-16.65132,30.18005-30.57641l62.04216-159.93154c1.23879-1.23879,3.24726-1.23879,4.48605,0l58.32774,156.9822c5.26774,14.1775,16.236,25.49848,30.23973,31.21218l168.29234,68.66542c1.23879,1.23879,1.23879,3.24726,0,4.48605l-160.44078,61.11341c-14.17017,5.39755-25.42054,16.50045-31.00459,30.59818l-65.41444,165.14822c-1.23879,1.23879-3.24726,1.23879-4.48605,0Z" fill="#ffb847" stroke="#000" stroke-miterlimit="10" stroke-width="16"/>
</svg>